<svg width="111" height="32" viewBox="0 0 111 32" fill="none" xmlns="http://www.w3.org/2000/svg">
<g clip-path="url(#clip0_11_28)">
<path d="M31.0266 13.6274L28.2282 10.9506V7.05703C28.2282 5.23193 26.7681 3.65018 24.943 3.65018H21.0495L18.3726 0.973376C17.0342 -0.365027 14.9658 -0.365027 13.6274 0.973376L10.8289 3.65018H7.05706C5.23196 3.65018 3.65021 5.23193 3.65021 7.05703V10.9506L0.973407 13.6274C-0.364996 14.9658 -0.364996 17.0342 0.973407 18.3726L3.65021 21.0494V24.943C3.65021 26.7681 5.11029 28.3498 7.05706 28.3498H10.9506L13.6274 31.0266C14.9658 32.365 17.0342 32.365 18.3726 31.0266L21.0495 28.3498H24.943C26.7681 28.3498 28.3498 26.8897 28.3498 24.943V21.0494L31.0266 18.3726C32.365 17.0342 32.365 14.9658 31.0266 13.6274ZM17.2776 23.8479C16.5475 24.5779 15.4525 24.5779 14.8441 23.8479L8.27379 17.2776C7.54375 16.5475 7.54375 15.4525 8.27379 14.8441L14.8441 8.27376C15.5742 7.54372 16.6692 7.54372 17.2776 8.27376L23.8479 14.8441C24.578 15.5741 24.578 16.6692 23.8479 17.2776L17.2776 23.8479Z" fill="#E84425"/>
</g>
<path d="M41.7216 25V7.54545H44.8835V15.5653H45.0966L51.9062 7.54545H55.767L49.017 15.3778L55.8267 25H52.0256L46.8182 17.517L44.8835 19.8011V25H41.7216ZM62.1927 25.2557C60.9143 25.2557 59.8063 24.9744 58.8688 24.4119C57.9313 23.8494 57.2041 23.0625 56.687 22.0511C56.1757 21.0398 55.92 19.858 55.92 18.5057C55.92 17.1534 56.1757 15.9687 56.687 14.9517C57.2041 13.9347 57.9313 13.1449 58.8688 12.5824C59.8063 12.0199 60.9143 11.7386 62.1927 11.7386C63.4711 11.7386 64.5791 12.0199 65.5166 12.5824C66.4541 13.1449 67.1785 13.9347 67.6899 14.9517C68.2069 15.9687 68.4654 17.1534 68.4654 18.5057C68.4654 19.858 68.2069 21.0398 67.6899 22.0511C67.1785 23.0625 66.4541 23.8494 65.5166 24.4119C64.5791 24.9744 63.4711 25.2557 62.1927 25.2557ZM62.2098 22.7841C62.9029 22.7841 63.4825 22.5937 63.9484 22.2131C64.4143 21.8267 64.7609 21.3097 64.9882 20.6619C65.2211 20.0142 65.3376 19.2926 65.3376 18.4972C65.3376 17.696 65.2211 16.9716 64.9882 16.3239C64.7609 15.6705 64.4143 15.1506 63.9484 14.7642C63.4825 14.3778 62.9029 14.1847 62.2098 14.1847C61.4995 14.1847 60.9086 14.3778 60.437 14.7642C59.9711 15.1506 59.6217 15.6705 59.3887 16.3239C59.1615 16.9716 59.0478 17.696 59.0478 18.4972C59.0478 19.2926 59.1615 20.0142 59.3887 20.6619C59.6217 21.3097 59.9711 21.8267 60.437 22.2131C60.9086 22.5937 61.4995 22.7841 62.2098 22.7841ZM70.7 29.9091V11.9091H73.7341V14.0739H73.9131C74.0722 13.7557 74.2966 13.4176 74.5864 13.0597C74.8762 12.696 75.2682 12.3864 75.7625 12.1307C76.2569 11.8693 76.8875 11.7386 77.6546 11.7386C78.6659 11.7386 79.5779 11.9972 80.3904 12.5142C81.2086 13.0256 81.8563 13.7841 82.3336 14.7898C82.8165 15.7898 83.058 17.017 83.058 18.4716C83.058 19.9091 82.8222 21.1307 82.3506 22.1364C81.879 23.142 81.237 23.9091 80.4245 24.4375C79.612 24.9659 78.6915 25.2301 77.6631 25.2301C76.9131 25.2301 76.2909 25.1051 75.7966 24.8551C75.3023 24.6051 74.9046 24.304 74.6034 23.9517C74.308 23.5937 74.0779 23.2557 73.9131 22.9375H73.7853V29.9091H70.7ZM73.7256 18.4545C73.7256 19.3011 73.8449 20.0426 74.0836 20.679C74.3279 21.3153 74.6773 21.8125 75.1319 22.1705C75.5921 22.5227 76.1489 22.6989 76.8023 22.6989C77.4841 22.6989 78.0552 22.517 78.5154 22.1534C78.9756 21.7841 79.3222 21.2812 79.5552 20.6449C79.7938 20.0028 79.9131 19.2727 79.9131 18.4545C79.9131 17.642 79.7966 16.9205 79.5637 16.2898C79.3307 15.6591 78.9841 15.1648 78.5239 14.8068C78.0637 14.4489 77.4898 14.2699 76.8023 14.2699C76.1432 14.2699 75.5836 14.4432 75.1233 14.7898C74.6631 15.1364 74.3137 15.6222 74.075 16.2472C73.8421 16.8722 73.7256 17.608 73.7256 18.4545ZM88.4013 7.54545V25H85.316V7.54545H88.4013ZM91.1899 25V11.9091H94.2751V25H91.1899ZM92.741 10.0511C92.2524 10.0511 91.8319 9.8892 91.4796 9.56534C91.1274 9.23579 90.9512 8.84091 90.9512 8.38068C90.9512 7.91477 91.1274 7.51989 91.4796 7.19602C91.8319 6.86648 92.2524 6.7017 92.741 6.7017C93.2353 6.7017 93.6558 6.86648 94.0024 7.19602C94.3546 7.51989 94.5308 7.91477 94.5308 8.38068C94.5308 8.84091 94.3546 9.23579 94.0024 9.56534C93.6558 9.8892 93.2353 10.0511 92.741 10.0511ZM100.149 17.3295V25H97.0637V11.9091H100.013V14.1335H100.166C100.467 13.4006 100.947 12.8182 101.606 12.3864C102.271 11.9545 103.092 11.7386 104.069 11.7386C104.973 11.7386 105.76 11.9318 106.43 12.3182C107.106 12.7045 107.629 13.2642 107.998 13.9972C108.373 14.7301 108.558 15.6193 108.552 16.6648V25H105.467V17.142C105.467 16.267 105.24 15.5824 104.785 15.0881C104.336 14.5937 103.714 14.3466 102.919 14.3466C102.379 14.3466 101.899 14.4659 101.478 14.7045C101.064 14.9375 100.737 15.2756 100.498 15.7188C100.265 16.1619 100.149 16.6989 100.149 17.3295Z" fill="black"/>
<defs>
<clipPath id="clip0_11_28">
<rect width="32" height="32" fill="white"/>
</clipPath>
</defs>
</svg>
