<svg width="25" height="25" viewBox="0 0 25 25" fill="none" xmlns="http://www.w3.org/2000/svg">
<rect width="24.0304" height="24.0304" rx="9" fill="white"/>
<path d="M19.4991 10.8159L18.1025 9.48008V7.537C18.1025 6.62619 17.3738 5.83681 16.463 5.83681H14.5199L13.1841 4.50095C12.5161 3.83302 11.4839 3.83302 10.8159 4.50095L9.41935 5.83681H7.537C6.62619 5.83681 5.83681 6.62619 5.83681 7.537V9.48008L4.50095 10.8159C3.83302 11.4839 3.83302 12.5161 4.50095 13.1841L5.83681 14.5199V16.463C5.83681 17.3738 6.56547 18.1632 7.537 18.1632H9.48008L10.8159 19.4991C11.4839 20.167 12.5161 20.167 13.1841 19.4991L14.5199 18.1632H16.463C17.3738 18.1632 18.1632 17.4345 18.1632 16.463V14.5199L19.4991 13.1841C20.167 12.5161 20.167 11.4839 19.4991 10.8159ZM12.6376 15.9165C12.2732 16.2808 11.7268 16.2808 11.4231 15.9165L8.14421 12.6376C7.77989 12.2732 7.77989 11.7268 8.14421 11.4231L11.4231 8.14421C11.7875 7.77989 12.334 7.77989 12.6376 8.14421L15.9165 11.4231C16.2808 11.7875 16.2808 12.334 15.9165 12.6376L12.6376 15.9165Z" fill="#E84425"/>
</svg>
